<?xml version="1.0" encoding="UTF-8"?>
<svg width="167px" height="36px" viewBox="0 0 167 36" version="1.1" xmlns="http://www.w3.org/2000/svg" xmlns:xlink="http://www.w3.org/1999/xlink">
    <!-- Generator: Sketch 43 (38999) - http://www.bohemiancoding.com/sketch -->
    <title>backstage logo</title>
    <desc>Created with Sketch.</desc>
    <defs></defs>
    <g id="black-header" stroke="none" stroke-width="1" fill="none" fill-rule="evenodd">
        <g id="navbar---logged-in---web-apps-copy" transform="translate(-21.000000, -77.000000)">
            <g id="main-navbar" transform="translate(0.000000, 69.000000)">
                <g id="backstage-logo" transform="translate(21.000000, 8.000000)">
                    <polyline id="Fill-1" fill="#ED2931" points="161.266806 22.3402785 162.325547 19.0146076 163.384065 22.3402785 166.805404 22.3402785 164.037108 24.394557 165.092504 27.7190886 162.325547 25.6623038 159.555022 27.7190886 160.61354 24.394557 157.843906 22.3402785 161.266806 22.3402785"></polyline>
                    <path d="M160.152975,18.5472911 C160.152975,17.7502785 160.052387,16.9774177 159.865038,16.2401013 L159.861693,16.2259747 C158.860494,12.298557 155.400125,9.41240506 151.24166,9.41240506 C151.236977,9.41240506 151.23207,9.41331646 151.22694,9.41331646 C151.221587,9.41331646 151.216458,9.41240506 151.211328,9.41240506 C147.052863,9.41240506 143.561046,12.3126835 142.559847,16.2401013 L142.55561,16.2635696 C142.367369,17.0004304 142.300236,17.7500506 142.300236,18.5468354 C142.300236,19.3438481 142.364024,20.0852658 142.552041,20.8223544 L142.559847,20.8542532 C143.5606,24.7816709 147.052863,27.6817215 151.211328,27.6817215 C151.216458,27.6817215 151.221587,27.6812658 151.22694,27.6812658 C151.23207,27.6812658 151.236977,27.6817215 151.24166,27.6817215 C153.730271,27.6817215 155.980013,26.6427342 157.599907,24.9666835 L154.396473,21.6936456 C153.689902,22.4389367 152.735764,22.9379241 151.668547,23.0486582 C151.667432,23.0491139 151.666094,23.0491139 151.664309,23.0491139 C151.599853,23.0561772 151.534504,23.0607342 151.468263,23.0643797 C151.414289,23.0673418 151.253927,23.0718987 151.228724,23.0718987 C151.193039,23.0718987 151.034016,23.0668861 150.989855,23.0646076 C149.210938,22.9636709 147.713266,21.7902532 147.103492,20.1672911 L160.011572,20.1672911 C160.103908,19.6411899 160.152975,19.1000506 160.152975,18.5472911 L160.152975,18.5472911 Z M150.784218,14.0456962 C150.786002,14.0456962 150.919377,14.0340759 150.984725,14.0299747 C151.039592,14.0272405 151.199061,14.0226835 151.224264,14.0224557 C151.259949,14.0226835 151.419418,14.0274684 151.463579,14.0299747 C152.960582,14.1145063 154.257077,14.9614177 154.993981,16.1949873 L147.457892,16.1949873 C148.161118,15.0176962 149.373752,14.1928861 150.784218,14.0456962 L150.784218,14.0456962 Z M136.395194,9.98475949 L136.395194,11.1805063 C135.177206,10.1242025 133.467875,9.41240506 131.856902,9.41240506 C126.920719,9.41240506 123.030563,13.5006835 123.030563,18.5434177 C123.030563,23.5863797 126.920719,27.6742025 131.856902,27.6742025 C133.467875,27.6742025 134.954172,27.2506329 136.395194,25.906557 L136.395194,26.8058734 C136.383819,29.2962532 134.409301,31.3122532 131.968419,31.3122532 L131.968419,35.9154684 C136.897912,35.9154684 140.895123,31.839038 140.905829,26.8058734 L140.906275,9.98475949 L136.395194,9.98475949 L136.395194,9.98475949 Z M131.968419,23.0705316 C129.521293,23.0705316 127.536515,21.0438228 127.536515,18.5434177 C127.536515,16.0430127 129.521293,14.0163038 131.968419,14.0163038 C134.34529,14.0163038 136.283677,15.9263544 136.395194,18.3258228 L136.395194,18.7610127 C136.283677,21.160481 134.34529,23.0705316 131.968419,23.0705316 L131.968419,23.0705316 Z M117.1166,9.98475949 L117.1166,11.1818734 C115.996301,10.1244304 113.963794,9.41263291 112.351037,9.41263291 C107.4095,9.41263291 103.738141,13.5050127 103.738141,18.5532152 C103.738141,23.6018734 107.4095,27.6942532 112.351037,27.6942532 C113.963794,27.6942532 115.809845,27.0988861 117.1166,25.9247848 L117.1166,27.1237215 L121.633034,27.1237215 L121.633034,9.98475949 L117.1166,9.98475949 L117.1166,9.98475949 Z M112.685588,23.0851139 C110.235785,23.0851139 108.249446,21.0563544 108.249446,18.5532152 C108.249446,16.0503038 110.235785,14.0210886 112.685588,14.0210886 C115.064912,14.0210886 117.005529,15.9336456 117.1166,18.3356203 L117.1166,18.7708101 C117.005529,21.1730127 115.064912,23.0851139 112.685588,23.0851139 L112.685588,23.0851139 Z M103.480314,14.0816962 L99.2147933,14.0816962 L99.2147933,27.1280506 L94.6983592,27.1280506 L94.6983592,14.0816962 L90.4328381,14.0816962 L90.4328381,9.98043038 L94.6983592,9.98043038 L94.6983592,0.0845316456 L99.2147933,0.0845316456 L99.2147933,9.98043038 L103.480314,9.98043038 L103.480314,14.0816962 L103.480314,14.0816962 Z M82.3141855,27.6719241 L82.3139624,27.6719241 C79.557934,27.6719241 77.656348,27.1784051 75.5319512,25.912481 L74.8753398,25.5119241 L76.4107043,21.0399494 L76.7599752,21.2691646 C78.541346,22.438481 80.4233051,23.0317975 82.3543316,23.0317975 L82.3989383,23.0317975 C83.935195,23.0256456 84.5982744,22.8230886 85.0242689,22.2286329 C85.1723634,22.0228861 85.1984583,21.7656456 85.1939977,21.5867848 C85.1801696,21.0034937 84.4388053,20.8143797 83.1648363,20.6856456 C82.9014334,20.659443 82.6663558,20.6352911 82.4444372,20.6063544 C81.5665762,20.5311646 79.7401526,20.376 78.1233807,19.658962 C76.1011334,18.7619241 75.0319095,17.2246329 75.0319095,15.2131899 C75.0319095,11.0481266 78.7351624,9.48827848 81.9060337,9.41741772 C82.0483292,9.41422785 82.1875023,9.41263291 82.3251141,9.41263291 C84.7349941,9.41263291 86.5915273,9.88724051 88.7322056,11.0497215 L89.4064367,11.4158734 L87.8880227,15.8199494 L87.5481192,15.6262785 C85.7794613,14.6203291 83.7085927,14.0197215 82.0084062,14.0197215 L81.9370353,14.0201772 C80.2932764,14.0201772 79.9482431,14.5683797 79.9482431,15.0281772 C79.9482431,15.6062278 81.0266115,15.6859747 81.6058302,15.7285823 L81.8665567,15.7490886 C82.1732281,15.7734684 82.4897131,15.7987595 82.7867941,15.8363544 L82.9819486,15.860962 C84.0128107,15.9876456 85.7390922,16.2006835 87.230073,16.9701266 C89.0901748,17.930962 90.0347228,19.4716709 90.0371762,21.5494177 C90.0398526,23.5957215 89.184295,25.2421519 87.5621703,26.3128101 C86.2456019,27.1820506 84.4133794,27.6648608 82.4054063,27.6719241 L82.3141855,27.6719241 L82.3141855,27.6719241 Z M67.1893726,18.486 L75.1858028,27.1209873 L69.1995761,27.1209873 L62.0943889,18.4850886 L69.1995761,9.97541772 L75.1858028,9.97541772 L67.1893726,18.486 L67.1893726,18.486 Z M57.5801852,27.1280506 L62.0966193,27.1280506 L62.0966193,0.0845316456 L57.5801852,0.0845316456 L57.5801852,27.1280506 Z M56.1648128,20.8542532 C55.1640603,24.7821266 51.6717973,27.6817215 47.5135555,27.6817215 C42.5760337,27.6817215 38.5716851,23.5920759 38.5716851,18.5468354 C38.5716851,13.5025063 42.5760337,9.41263291 47.5135555,9.41263291 C51.6720203,9.41263291 55.1642833,12.3129114 56.1648128,16.2403291 L51.3214112,16.2403291 C50.5494913,14.9126582 49.1323347,14.022 47.5111021,14.022 C45.0646446,14.022 43.0812052,16.0480253 43.0812052,18.5468354 C43.0812052,21.046557 45.0646446,23.0723544 47.5111021,23.0723544 C49.1323347,23.0723544 50.5494913,22.1821519 51.3211882,20.8542532 L56.1648128,20.8542532 L56.1648128,20.8542532 Z M32.6427781,9.98475949 L32.6427781,11.1818734 C31.5220334,10.1244304 29.4897496,9.41263291 27.8772153,9.41263291 C22.9356789,9.41263291 19.2643198,13.5050127 19.2643198,18.5532152 C19.2643198,23.6018734 22.9356789,27.6942532 27.8772153,27.6942532 C29.4897496,27.6942532 31.3362463,27.0988861 32.6427781,25.9247848 L32.6427781,27.1237215 L37.1592122,27.1237215 L37.1592122,9.98475949 L32.6427781,9.98475949 L32.6427781,9.98475949 Z M28.211766,23.0851139 C25.761963,23.0851139 23.7754011,21.0563544 23.7754011,18.5532152 C23.7754011,16.0503038 25.761963,14.0210886 28.211766,14.0210886 C30.5904213,14.0210886 32.5314843,15.9336456 32.6427781,18.3356203 L32.6427781,18.7708101 C32.5314843,21.1730127 30.5904213,23.0851139 28.211766,23.0851139 L28.211766,23.0851139 Z M0.0236415808,0.0845316456 L0.0236415808,27.1237215 L4.54007565,27.1237215 L4.54007565,25.9247848 C5.75248728,26.9471392 7.69310421,27.6937975 9.30563845,27.6937975 C14.2471749,27.6937975 17.918757,23.6018734 17.918757,18.5532152 C17.918757,13.5050127 14.2471749,9.41240506 9.30563845,9.41240506 C7.69310421,9.41240506 5.82675753,10.0483291 4.54007565,11.1818734 L4.54007565,0.0845316456 L0.0236415808,0.0845316456 L0.0236415808,0.0845316456 Z M4.54007565,18.7708101 L4.54007565,18.3356203 C4.65136951,15.9336456 6.59220947,14.0210886 8.97108778,14.0210886 C11.4211139,14.0210886 13.4076758,16.0503038 13.4076758,18.5532152 C13.4076758,21.0563544 11.4211139,23.0851139 8.97108778,23.0851139 C6.59220947,23.0851139 4.65136951,21.1730127 4.54007565,18.7708101 L4.54007565,18.7708101 Z" id="Fill-2" fill="#333333"></path>
                </g>
            </g>
        </g>
    </g>
</svg>